<?xml version="1.0" encoding="UTF-8"?>
<svg width="47px" height="45px" viewBox="0 0 47 45" version="1.1" xmlns="http://www.w3.org/2000/svg" xmlns:xlink="http://www.w3.org/1999/xlink">
    <!-- Generator: Sketch 44.1 (41455) - http://www.bohemiancoding.com/sketch -->
    <title>Page 1</title>
    <desc>Created with Sketch.</desc>
    <defs></defs>
    <g id="Page-1" stroke="none" stroke-width="1" fill="none" fill-rule="evenodd">
        <g id="1366首页1-copy-2" transform="translate(-1141.000000, -88.000000)" fill="#FFFFFF">
            <g id="Group-17" transform="translate(133.000000, 74.000000)">
                <g id="Page-1" transform="translate(1008.000000, 14.714286)">
                    <path d="M34.4615664,41.4500439 C34.6945238,41.5437155 34.8777945,41.588515 35.0162657,41.588515 C35.337193,41.588515 35.6646366,41.4500439 35.8918922,41.172287 C36.1240351,40.8953446 36.1688346,40.5247306 36.1240351,40.2974749 L34.3678947,30.0139536 C34.0909524,28.5396429 34.6008521,26.9227882 35.7029198,25.9086905 L43.1282331,18.5729762 C43.4043609,18.2960338 43.4988471,17.8806203 43.4043609,17.4212218 C43.2667043,17.0049937 42.9449624,16.7280514 42.4855639,16.6840664 L32.1523559,15.1600689 C30.6283584,14.9279261 29.2933333,14.0083145 28.6449624,12.6227882 L24.0346867,3.25969298 C23.8522306,2.84427945 23.4816165,2.66100877 23.066203,2.66100877 C22.6499749,2.66100877 22.2793609,2.89315163 22.0521053,3.3093797 L17.4418296,12.6276754 C16.7942732,13.963515 15.4584336,14.9328133 13.9352506,15.1649561 L3.60204261,16.6889536 C3.18662907,16.7826253 2.86488722,17.0595677 2.72641604,17.4252945 L2.72641604,17.470094 C2.58794486,17.8855075 2.68161654,18.2561216 3.0033584,18.5778634 L10.4775439,25.9086905 C11.5853133,26.9675877 12.0447118,28.4907707 11.8125689,30.0139536 L10.0621303,40.2974749 C10.0173308,40.5296178 10.0173308,40.8513596 10.2942732,41.128302 C10.5272306,41.4052444 10.8489724,41.5437155 11.1698997,41.5437155 C11.4020426,41.5437155 11.5405138,41.4997306 11.678985,41.4500439 L20.993208,36.5628258 C21.5918922,36.1922118 22.3282331,36.0089411 23.1150752,36.0089411 C23.8074311,36.0089411 24.5445865,36.1922118 25.2369424,36.5628258 L34.4615664,41.4500439 Z M35.0602506,44.2642669 C34.5071805,44.2642669 33.9524812,44.1257957 33.3546115,43.8048684 L24.0346867,38.9176504 C23.8025439,38.7791792 23.4816165,38.684693 23.1150752,38.684693 C22.7941479,38.684693 22.4227193,38.7791792 22.1946491,38.8679637 L12.9260401,43.8048684 C12.3721554,44.1257957 11.8174561,44.2642669 11.174787,44.2642669 C10.0670175,44.2642669 9.0081203,43.7543672 8.27177945,42.9284273 C7.53380952,42.1024875 7.2576817,40.9898308 7.44013784,39.8869486 L9.24107769,29.5545551 C9.33474937,28.9061842 9.10179198,28.263515 8.64239348,27.803302 L1.1633208,20.5571867 C0.105238095,19.5422744 -0.266190476,18.063891 0.194837093,16.6840664 C0.654235589,15.2985401 1.80680451,14.3292419 3.23631579,14.1019862 L13.5695238,12.5779887 C14.2162657,12.484317 14.8157644,12.0689035 15.0927068,11.519906 L19.7021679,2.11201128 C20.3505388,0.820971178 21.6415789,0.034943609 23.0710902,0.034943609 C24.499787,0.034943609 25.7908271,0.820971178 26.439198,2.11201128 L31.0494737,11.519906 C31.370401,12.1185902 31.9251003,12.4892043 32.5726566,12.5779887 L42.9050501,14.1019862 C44.3345614,14.3341291 45.4871303,15.2985401 45.9473434,16.6392669 C46.4067419,18.0239787 46.041015,19.4982895 45.0277318,20.5115727 L37.5983459,27.7976003 C37.0884461,28.2586278 36.9051754,28.9061842 36.9996617,29.5488534 L38.7509148,39.8380764 C38.9333709,40.9450313 38.6564286,42.0528008 37.9192732,42.8795551 C37.2277318,43.7543672 36.1688346,44.2642669 35.0602506,44.2642669 L35.0602506,44.2642669 Z" id="Fill-1"></path>
                </g>
            </g>
        </g>
    </g>
</svg>