<?xml version="1.0" encoding="UTF-8"?>
<svg width="44px" height="50px" viewBox="0 0 44 50" version="1.1" xmlns="http://www.w3.org/2000/svg" xmlns:xlink="http://www.w3.org/1999/xlink">
    <!-- Generator: Sketch 44.1 (41455) - http://www.bohemiancoding.com/sketch -->
    <title>Page 1</title>
    <desc>Created with Sketch.</desc>
    <defs></defs>
    <g id="Page-1" stroke="none" stroke-width="1" fill="none" fill-rule="evenodd">
        <g id="1366首页1-copy-2" transform="translate(-166.000000, -459.000000)">
            <g id="Group" transform="translate(133.000000, 434.000000)">
                <g id="Rectangle-14">
                    <g id="Group-5">
                        <rect id="Rectangle-13" x="0" y="0" width="110.031348" height="123.334573" rx="8"></rect>
                        <g id="Page-1" transform="translate(35.000000, 27.000000)" stroke="#FFFFFF" stroke-width="2.5" stroke-linecap="round">
                            <path d="M18.25525,43.1909033 L2.81328333,43.1909033 C1.30448333,43.1909033 0.07995,41.96637 0.07995,40.45757 L0.07995,8.80010333 C0.07995,7.28993667 1.30448333,6.06677 2.81328333,6.06677 L35.0051167,6.06677 C36.5139167,6.06677 37.73845,7.28993667 37.73845,8.80010333 L37.73845,27.4756033" id="Stroke-1" stroke-linejoin="round"></path>
                            <path d="M9,0.000136666667 L9,12.4846367" id="Stroke-3"></path>
                            <path d="M30,0.000136666667 L30,12.4846367" id="Stroke-5"></path>
                            <path d="M0,18 L37.7377667,18" id="Stroke-7" stroke-linejoin="round"></path>
                            <path d="M4.06665333,26 L14.7539867,26" id="Stroke-9" stroke-linejoin="round"></path>
                            <path d="M4.06665333,34 L14.7539867,34" id="Stroke-11" stroke-linejoin="round"></path>
                            <path d="M40.3848633,35.5101 C40.3848633,41.2555667 35.51543,45.9118 29.5102967,45.9118 C23.5037967,45.9118 18.63573,41.2555667 18.63573,35.5101 C18.63573,29.766 23.5037967,25.1084 29.5102967,25.1084 C35.51543,25.1084 40.3848633,29.766 40.3848633,35.5101 Z" id="Stroke-13" stroke-linejoin="round"></path>
                            <path d="M29,29.9146933 L29,35.5098267" id="Stroke-15" stroke-linejoin="round"></path>
                            <path d="M34.99555,35.5767933 L29.4004167,35.5098267" id="Stroke-17" stroke-linejoin="round"></path>
                        </g>
                    </g>
                </g>
            </g>
        </g>
    </g>
</svg>