<?xml version="1.0" encoding="UTF-8"?>
<svg width="46px" height="46px" viewBox="0 0 46 46" version="1.1" xmlns="http://www.w3.org/2000/svg" xmlns:xlink="http://www.w3.org/1999/xlink">
    <!-- Generator: Sketch 44.1 (41455) - http://www.bohemiancoding.com/sketch -->
    <title>Page 1 Copy 3</title>
    <desc>Created with Sketch.</desc>
    <defs>
        <path d="M36.6597658,37.971367 L31.2201636,37.971367 C30.6941396,37.971367 30.2678511,37.5450785 30.2678511,37.0190546 C30.2678511,36.493835 30.6941396,36.0667421 31.2201636,36.0667421 L36.6597658,36.0667421 C37.1849854,36.0667421 37.6120782,36.493835 37.6120782,37.0190546 C37.6120782,37.5450785 37.1849854,37.971367 36.6597658,37.971367 M34.2347472,24.6969038 C29.0283972,24.6969038 24.7936633,28.9324421 24.7936633,34.1379877 C24.7936633,39.345142 29.0283972,43.5806803 34.2347472,43.5806803 C39.4410972,43.5806803 43.6774397,39.345142 43.6774397,34.1379877 C43.6774397,28.9324421 39.4402928,24.6969038 34.2347472,24.6969038 M22.8890384,34.1371834 C22.8890384,27.8811985 27.9787623,22.7914747 34.2347472,22.7914747 C40.4923407,22.7914747 45.5812603,27.8811985 45.5812603,34.1371834 C45.5812603,40.3931683 40.4907321,45.4836965 34.2347472,45.4836965 C27.9787623,45.4836965 22.8890384,40.3931683 22.8890384,34.1371834 Z M6.49623465,25.4433109 L14.557109,25.4433109 C15.0831329,25.4433109 15.5094214,25.8695994 15.5094214,26.3956233 C15.5094214,26.9216472 15.0831329,27.3479358 14.557109,27.3479358 L6.49623465,27.3479358 C5.97101504,27.3479358 5.54392221,26.9216472 5.54392221,26.3956233 C5.54392221,25.8695994 5.97101504,25.4433109 6.49623465,25.4433109 M6.49623465,16.9802776 L21.1565376,16.9802776 C21.6817572,16.9802776 22.1080457,17.4065661 22.1080457,17.93259 C22.1080457,18.458614 21.6817572,18.8849025 21.1565376,18.8849025 L6.49623465,18.8849025 C5.97101504,18.8849025 5.54392221,18.458614 5.54392221,17.93259 C5.54392221,17.4065661 5.97101504,16.9802776 6.49623465,16.9802776 M6.49623465,8.56952498 L27.7559662,8.56952498 C28.2811858,8.56952498 28.7074744,8.99581348 28.7074744,9.52183741 C28.7074744,10.0478613 28.2811858,10.4741498 27.7559662,10.4741498 L6.49623465,10.4741498 C5.97101504,10.4741498 5.54392221,10.0478613 5.54392221,9.52183741 C5.54392221,8.99581348 5.97101504,8.56952498 6.49623465,8.56952498 M21.7227774,43.1117629 L3.49130285,43.1117629 C1.56254845,43.1117629 -0.00024129538,41.5481689 -0.00024129538,39.6202188 L-0.00024129538,3.49106155 C-0.00024129538,1.56311147 1.56254845,0.000321727173 3.49130285,0.000321727173 L33.2558923,0.000321727173 C35.183038,0.000321727173 36.7458278,1.56311147 36.7458278,3.49106155 L36.7458278,19.1487187 C36.7458278,19.6747427 36.3195393,20.1010312 35.7943197,20.1010312 C35.2682957,20.1010312 34.8420072,19.6747427 34.8420072,19.1487187 L34.8420072,3.49106155 C34.8420072,2.6183766 34.1277729,1.90414227 33.2550879,1.90414227 L3.49130285,1.90414227 C2.6145963,1.90414227 1.90438357,2.61515933 1.90438357,3.49106155 L1.90438357,39.6202188 C1.90438357,40.4969253 2.6145963,41.207138 3.49130285,41.207138 L21.7227774,41.207138 C22.247997,41.207138 22.6742855,41.6334266 22.6742855,42.1594505 C22.6742855,42.6854744 22.247997,43.1117629 21.7227774,43.1117629" id="path-1"></path>
    </defs>
    <g id="Page-1" stroke="none" stroke-width="1" fill="none" fill-rule="evenodd">
        <g id="1366首页1-copy-2" transform="translate(-724.000000, -88.000000)">
            <g id="Group-17" transform="translate(133.000000, 74.000000)">
                <g id="Page-1-Copy-3" transform="translate(591.000000, 14.000000)">
                    <mask id="mask-2" fill="white">
                        <use xlink:href="#path-1"></use>
                    </mask>
                    <use id="Fill-1" fill="#FFFFFF" xlink:href="#path-1"></use>
                    <path d="M36.6597658,35.6501055 L31.2201636,35.6501055 C30.6941396,35.6501055 30.2678511,35.2238169 30.2678511,34.6985973 C30.2678511,34.1725734 30.6941396,33.7462849 31.2201636,33.7462849 L36.6597658,33.7462849 C37.1849854,33.7462849 37.6120782,34.1725734 37.6120782,34.6985973 C37.6120782,35.2238169 37.1849854,35.6501055 36.6597658,35.6501055" id="Path" fill="#FFFFFF"></path>
                    <path d="M34.1173168,34.923002 C33.8478703,34.923002 33.5784238,34.8087889 33.3926263,34.5867971 L29.8721267,30.4397339 C29.5302916,30.0375749 29.5809636,29.4375537 29.9807096,29.0973273 C30.378847,28.7579051 30.9836941,28.8053598 31.322312,29.2067145 L34.8436159,33.3537778 C35.1846467,33.7551324 35.134779,34.3559579 34.7334243,34.6953801 C34.55567,34.8498091 34.3352869,34.923002 34.1173168,34.923002" id="Path" fill="#FFFFFF"></path>
                    <path d="M33.9288643,35.0134875 C33.7108941,35.0134875 33.4921196,34.9394902 33.313561,34.7882785 C32.9122064,34.4488563 32.863143,33.8480308 33.2025652,33.4466762 L36.7166302,29.292374 C37.0552481,28.8902151 37.6568779,28.841956 38.0582325,29.1805738 C38.4595872,29.5216046 38.5086506,30.1216258 38.170837,30.5229805 L34.6559677,34.6764783 C34.4677573,34.8992743 34.1991151,35.0134875 33.9288643,35.0134875" id="Path" fill="#FFFFFF"></path>
                    <path d="M33.9387582,40.3907553 C33.4135386,40.3907553 32.9872501,39.9644668 32.9872501,39.4392472 L32.9872501,33.1977401 C32.9872501,32.6725205 33.4135386,32.2454276 33.9387582,32.2454276 C34.4647821,32.2454276 34.8918749,32.6725205 34.8918749,33.1977401 L34.8918749,39.4384429 C34.8918749,39.9644668 34.4647821,40.3907553 33.9387582,40.3907553" id="Path" fill="#FFFFFF"></path>
                </g>
            </g>
        </g>
    </g>
</svg>