<?xml version="1.0" encoding="UTF-8"?>
<svg width="50px" height="46px" viewBox="0 0 50 46" version="1.1" xmlns="http://www.w3.org/2000/svg" xmlns:xlink="http://www.w3.org/1999/xlink">
    <!-- Generator: Sketch 44.1 (41455) - http://www.bohemiancoding.com/sketch -->
    <title>Fill 1</title>
    <desc>Created with Sketch.</desc>
    <defs></defs>
    <g id="Page-1" stroke="none" stroke-width="1" fill="none" fill-rule="evenodd">
        <g id="1366首页1-copy-2" transform="translate(-571.000000, -88.000000)" fill="#FFFFFF">
            <g id="Group-17" transform="translate(133.000000, 74.000000)">
                <path d="M483.245351,18.5004386 C480.360263,15.6153509 476.519035,14.0276316 472.428684,14.0276316 C468.338333,14.0276316 464.495351,15.6171053 461.610263,18.502193 L450.93307,29.1776316 C450.243596,29.8671053 450.243596,30.9899123 450.93307,31.6785088 C451.268158,32.0127193 451.71114,32.1969298 452.183947,32.1969298 C452.655877,32.1969298 453.101491,32.0135965 453.434825,31.6785088 L464.110263,21.0039474 C466.32693,18.7864035 469.282193,17.5635965 472.42693,17.5635965 C475.571667,17.5635965 478.525175,18.7846491 480.741842,21.002193 C485.328684,25.5881579 485.328684,33.047807 480.741842,37.6355263 L462.86114,55.5197368 L444.976053,37.6381579 C440.390088,33.052193 440.390088,25.5899123 444.976053,21.0048246 C447.189211,18.7916667 450.12693,17.5723684 453.247982,17.5723684 C453.81114,17.5723684 454.38307,17.6127193 454.947105,17.6925439 C455.030439,17.7048246 455.114649,17.7100877 455.197982,17.7100877 C456.071667,17.7100877 456.823421,17.0565789 456.947982,16.1890351 C457.083947,15.2232456 456.408509,14.3267544 455.444474,14.1899123 C454.732193,14.0872807 454.008509,14.0364035 453.288333,14.0364035 C451.670789,14.0364035 450.081316,14.2837719 448.562018,14.7741228 C446.251491,15.5214912 444.201491,16.775 442.473421,18.502193 C436.508509,24.4662281 436.508509,34.1741228 442.474298,40.1372807 L461.608509,59.2714912 C461.941842,59.6039474 462.386579,59.7890351 462.859386,59.7890351 C463.332193,59.7890351 463.775175,59.6065789 464.110263,59.2714912 L483.244474,40.1372807 C489.21114,34.1714912 489.209386,24.4662281 483.245351,18.5004386" id="Fill-1"></path>
            </g>
        </g>
    </g>
</svg>