<?xml version="1.0" encoding="UTF-8"?>
<svg width="40px" height="40px" viewBox="0 0 40 40" version="1.1" xmlns="http://www.w3.org/2000/svg" xmlns:xlink="http://www.w3.org/1999/xlink">
    <!-- Generator: Sketch 44.1 (41455) - http://www.bohemiancoding.com/sketch -->
    <title>Group 28</title>
    <desc>Created with Sketch.</desc>
    <defs></defs>
    <g id="Page-1" stroke="none" stroke-width="1" fill="none" fill-rule="evenodd">
        <g id="1366首页1-copy-2" transform="translate(-293.000000, -461.000000)" fill="#FFFFFF">
            <g id="Group" transform="translate(133.000000, 434.000000)">
                <g id="Rectangle-14">
                    <g id="Group-5">
                        <g id="Group-28" transform="translate(159.000000, 27.000000)">
                            <path d="M19.450852,19.7305 C19.450852,20.5085 18.849852,21.1405 18.102852,21.1405 L2.31685204,21.1405 C1.57685204,21.1405 0.968852038,20.5085 0.968852038,19.7305 C0.968852038,18.9525 1.56985204,18.3205 2.31685204,18.3205 L18.102852,18.3205 C18.842852,18.3285 19.450852,18.9595 19.450852,19.7305 M40.968852,6.0635 C40.968852,6.8415 40.367852,7.4735 39.620852,7.4735 L19.165852,7.4735 C18.426852,7.4735 17.817852,6.8415 17.817852,6.0635 C17.817852,5.2855 18.418852,4.6535 19.165852,4.6535 L39.628852,4.6535 C40.367852,4.6535 40.968852,5.2855 40.968852,6.0635 M40.960852,19.6535 C40.960852,20.4315 40.359852,21.0635 39.612852,21.0635 L28.818852,21.0635 C28.079852,21.0635 27.471852,20.4315 27.471852,19.6535 C27.471852,18.8755 28.071852,18.2435 28.818852,18.2435 L39.612852,18.2435 C40.359852,18.2435 40.960852,18.8755 40.960852,19.6535 M9.70485204,6.0635 C9.70485204,6.8415 9.10385204,7.4735 8.35685204,7.4735 L2.31685204,7.4735 C1.57685204,7.4735 0.968852038,6.8415 0.968852038,6.0635 C0.968852038,5.2855 1.56985204,4.6535 2.31685204,4.6535 L8.35685204,4.6535 C9.10385204,4.6535 9.70485204,5.2855 9.70485204,6.0635" id="Fill-1"></path>
                            <path d="M40.899052,34.2447 C40.899052,34.8767 40.483052,35.3927 39.975052,35.3927 L26.431052,35.3927 C25.922052,35.3927 25.506052,34.8767 25.506052,34.2447 C25.506052,33.6127 25.922052,33.0977 26.431052,33.0977 L39.975052,33.0977 C40.483052,33.0977 40.899052,33.6127 40.899052,34.2447 M13.711052,2.8117 C12.116052,2.8117 10.815052,4.1137 10.815052,5.7167 C10.815052,7.3187 12.116052,8.6207 13.711052,8.6207 C15.306052,8.6207 16.608052,7.3187 16.608052,5.7167 C16.608052,4.1137 15.306052,2.8117 13.711052,2.8117 M13.711052,11.4327 C10.568052,11.4327 8.01005204,8.8677 8.01005204,5.7167 C8.01005204,2.5657 10.568052,-0.0003 13.711052,-0.0003 C16.855052,-0.0003 19.412052,2.5657 19.412052,5.7167 C19.412052,8.8677 16.855052,11.4327 13.711052,11.4327" id="Fill-4"></path>
                            <path d="M23.434252,16.5718 C21.839252,16.5718 20.537252,17.8738 20.537252,19.4758 C20.537252,21.0788 21.839252,22.3808 23.434252,22.3808 C25.029252,22.3808 26.330252,21.0788 26.330252,19.4758 C26.330252,17.8738 25.029252,16.5718 23.434252,16.5718 M23.434252,25.1928 C20.290252,25.1928 17.733252,22.6278 17.733252,19.4758 C17.733252,16.3248 20.290252,13.7598 23.434252,13.7598 C26.577252,13.7598 29.135252,16.3248 29.135252,19.4758 C29.135252,22.6278 26.577252,25.1928 23.434252,25.1928 M16.716252,34.2448 C16.716252,35.0228 16.115252,35.6548 15.368252,35.6548 L2.31725204,35.6548 C1.57725204,35.6548 0.968252038,35.0228 0.968252038,34.2448 C0.968252038,33.4678 1.56925204,32.8358 2.31725204,32.8358 L15.375252,32.8358 C16.115252,32.8358 16.716252,33.4678 16.716252,34.2448 M40.960252,34.2448 C40.960252,35.0228 40.360252,35.6548 39.613252,35.6548 L24.920252,35.6548 C24.181252,35.6548 23.573252,35.0228 23.573252,34.2448 C23.573252,33.4678 24.173252,32.8358 24.920252,32.8358 L39.613252,32.8358 C40.360252,32.8358 40.960252,33.4678 40.960252,34.2448" id="Fill-7"></path>
                            <path d="M19.851752,31.3404 C18.256752,31.3404 16.954752,32.6424 16.954752,34.2444 C16.954752,35.8474 18.256752,37.1494 19.851752,37.1494 C21.446752,37.1494 22.748752,35.8474 22.748752,34.2444 C22.748752,32.6424 21.446752,31.3404 19.851752,31.3404 M19.851752,39.9614 C16.707752,39.9614 14.150752,37.3964 14.150752,34.2444 C14.150752,31.0944 16.707752,28.5284 19.851752,28.5284 C22.994752,28.5284 25.552752,31.0944 25.552752,34.2444 C25.552752,37.3964 22.994752,39.9614 19.851752,39.9614" id="Fill-10"></path>
                        </g>
                    </g>
                </g>
            </g>
        </g>
    </g>
</svg>