<?xml version="1.0" encoding="UTF-8"?>
<svg width="43px" height="50px" viewBox="0 0 43 50" version="1.1" xmlns="http://www.w3.org/2000/svg" xmlns:xlink="http://www.w3.org/1999/xlink">
    <!-- Generator: Sketch 44.1 (41455) - http://www.bohemiancoding.com/sketch -->
    <title>Page 1 Copy 4</title>
    <desc>Created with Sketch.</desc>
    <defs></defs>
    <g id="Page-1" stroke="none" stroke-width="1" fill="none" fill-rule="evenodd">
        <g id="1366首页1-copy-2" transform="translate(-426.000000, -87.000000)" fill="#FFFFFF">
            <g id="Group-17" transform="translate(133.000000, 74.000000)">
                <path d="M294.915614,35.3294594 L294.915614,28.7582768 C294.915614,27.4935008 296.262039,26.1298038 297.511113,26.1298038 L302.021441,26.1298038 L302.021441,31.8774295 C302.021441,33.1202231 303.873462,33.2866616 303.873462,32.0438681 L303.873462,26.1352994 L324.983681,26.1352994 L324.983681,32.0438681 C324.983681,33.3502537 326.835702,33.1885257 326.835702,31.8774295 L326.835702,26.1298038 L331.34603,26.1298038 C332.588823,26.1298038 333.941529,27.4872201 333.941529,28.7582768 L333.941529,35.3294594 L294.915614,35.3294594 Z M333.935249,58.3144668 C333.935249,59.5800279 332.617872,60.2818961 331.375078,60.2818961 L297.476569,60.2818961 C296.233776,60.2818961 294.915614,58.9244798 294.915614,57.652638 L294.915614,37.2968887 L333.935249,37.2968887 L333.935249,58.3144668 Z M314.748495,14.9674293 C319.729875,14.9674293 324.097317,18.5639153 324.983681,24.1615893 L303.873462,24.1615893 C304.75433,18.5694109 309.759263,14.9674293 314.748495,14.9674293 L314.748495,14.9674293 Z M331.375078,24.1615893 L326.899294,24.1615893 C326.076522,17.6430076 321.824488,13 314.748495,13 C307.665435,13 302.78062,17.6485032 301.952353,24.1670849 L297.476569,24.1670849 C294.984701,24.1670849 293,25.898988 293,28.4363909 L293,57.6644143 C293,60.2073128 295.019245,62.2611018 297.511113,62.2611018 L331.34603,62.2611018 C333.837898,62.2611018 335.857143,60.2073128 335.857143,57.6644143 L335.857143,28.4363909 C335.857143,25.8934924 333.866946,24.1615893 331.375078,24.1615893 L331.375078,24.1615893 Z" id="Page-1-Copy-4"></path>
            </g>
        </g>
    </g>
</svg>