<?xml version="1.0" encoding="UTF-8"?>
<svg width="65px" height="57px" viewBox="0 0 65 57" version="1.1" xmlns="http://www.w3.org/2000/svg" xmlns:xlink="http://www.w3.org/1999/xlink">
    <!-- Generator: Sketch 44.1 (41455) - http://www.bohemiancoding.com/sketch -->
    <title>Fill 1</title>
    <desc>Created with Sketch.</desc>
    <defs></defs>
    <g id="Page-1" stroke="none" stroke-width="1" fill="none" fill-rule="evenodd">
        <g id="1366首页1-copy-2" transform="translate(-218.000000, -83.000000)" fill="#FFFFFF">
            <g id="Group-17" transform="translate(133.000000, 74.000000)">
                <g id="Group" transform="translate(66.000000, 9.000000)">
                    <path d="M44.8045319,3.7965184 C51.652553,3.7965184 57.2259962,9.36996163 57.2259962,16.2179827 C57.2259962,23.0660038 51.652553,28.6383131 44.8045319,28.6383131 C37.9565108,28.6383131 32.3842015,23.0660038 32.3842015,16.2179827 C32.3842015,9.36996163 37.9565108,3.7965184 44.8045319,3.7965184 M59.6526836,33.3884969 C57.6591712,31.981245 55.4966979,30.8676904 53.2015506,30.0727802 C58.0367819,27.136942 61.0123089,21.9036886 61.0123089,16.2179827 C61.0123089,7.2721244 53.7401845,0 44.7954601,0 C35.8507358,0 28.5774774,7.2721244 28.5774774,16.2179827 C28.5774774,19.2592797 29.427952,22.2348067 31.0427197,24.8032398 C32.4034789,26.9747849 34.2643173,28.7982023 36.4551397,30.1204067 C34.1225715,30.9153169 31.9215434,32.0390773 29.8996819,33.4735444 C27.6997877,35.0327477 25.7629736,36.9208012 24.1380003,39.0753368 C20.7757909,43.5522348 19,48.8988848 19,54.508615 C19,55.5575336 19.8504746,56.4068742 20.8982592,56.4068742 C21.9471778,56.4068742 22.7965184,55.5575336 22.7965184,54.508615 C22.7965184,48.6528142 25.082594,43.146275 29.2193022,38.9812176 C33.3571444,34.8343037 38.8262628,32.5391564 44.6253652,32.5391564 C44.8136036,32.5584338 45.0131816,32.5391564 45.20142,32.5017355 L45.3522375,32.4643146 C51.0005225,32.5765772 56.3097516,34.8524471 60.3421349,38.9041079 C64.4890489,43.0600935 66.7649188,48.5768385 66.7649188,54.4337732 C66.7649188,55.4826918 67.6153933,56.3320324 68.6643119,56.3320324 C69.7120966,56.3320324 70.5625711,55.4826918 70.5625711,54.4337732 C70.5625711,48.8229091 68.7867803,43.4853308 65.4143652,38.999361 C63.7995975,36.8357538 61.8537117,34.9477003 59.6526836,33.3884969 M79.2612248,36.6100945 C76.8243318,33.0959337 73.5369641,30.4515248 69.7120966,28.9308763 C71.40284,27.7402119 72.8202976,26.1628651 73.8397331,24.3122325 C75.0303974,22.1769744 75.6540788,19.7310096 75.6540788,17.2566956 C75.6540788,9.52077912 69.66447,3.22046364 62.2970924,3.22046364 C61.2493078,3.22046364 60.3988332,4.07093819 60.3988332,5.1198568 C60.3988332,6.16764145 61.2493078,7.018116 62.2970924,7.018116 C67.5689007,7.018116 71.8564264,11.6084106 71.8564264,17.2566956 C71.8564264,22.9049806 67.5689007,27.4952753 62.2970924,27.4952753 C61.2493078,27.4952753 60.3988332,28.3446159 60.3988332,29.3946684 L60.3988332,29.4037402 C60.3988332,30.4515248 61.2493078,31.3019994 62.2970924,31.3019994 C71.7815846,31.3019994 79.4880181,39.5289232 79.4880181,49.6348288 C79.4880181,50.6837474 80.3373586,51.533088 81.3862773,51.533088 C82.4351959,51.533088 83.2856704,50.6837474 83.2856704,49.6348288 C83.2947421,44.9220658 81.896562,40.4156847 79.2612248,36.6100945" id="Fill-1"></path>
                </g>
            </g>
        </g>
    </g>
</svg>