<?xml version="1.0" encoding="UTF-8"?>
<svg width="47px" height="50px" viewBox="0 0 47 50" version="1.1" xmlns="http://www.w3.org/2000/svg" xmlns:xlink="http://www.w3.org/1999/xlink">
    <!-- Generator: Sketch 44.1 (41455) - http://www.bohemiancoding.com/sketch -->
    <title>Group 11</title>
    <desc>Created with Sketch.</desc>
    <defs></defs>
    <g id="Page-1" stroke="none" stroke-width="1" fill="none" fill-rule="evenodd">
        <g id="1366首页1-copy-2" transform="translate(-1001.000000, -86.000000)" stroke="#FFFFFF" stroke-width="3.9">
            <g id="Group-17" transform="translate(133.000000, 74.000000)">
                <g id="Group-11" transform="translate(870.000000, 14.000000)">
                    <path d="M32.0874306,4.83988625 L38.3154338,4.83988625 C40.8274446,4.83988625 42.8629826,6.9365317 42.8629826,9.5212108 L42.8629826,41.0105297 C42.8629826,43.5960346 40.8274446,45.69268 38.3154338,45.69268 L4.8434265,45.69268 C2.33224147,45.69268 0.295877684,43.5960346 0.295877684,41.0105297 L0.295877684,9.5212108 C0.295877684,6.9365317 2.33224147,4.83988625 4.8434265,4.83988625 L11.0714296,4.83988625" id="Stroke-1"></path>
                    <path d="M27.4061887,9.56918839 L15.7528368,9.56918839 C13.1673319,9.56918839 11.0715122,7.47254295 11.0715122,4.88786384 L11.0715122,4.7928996 C11.0715122,2.20739472 13.1673319,0.110749275 15.7528368,0.110749275 L27.4061887,0.110749275 C29.9916935,0.110749275 32.0875132,2.20739472 32.0875132,4.7928996 L32.0875132,4.88786384 C32.0875132,7.47254295 29.9916935,9.56918839 27.4061887,9.56918839 Z" id="Stroke-3"></path>
                    <polyline id="Stroke-5" stroke-linecap="round" stroke-linejoin="round" points="11.7623565 27.0491337 18.3512237 34.8675815 31.4166527 20.6824002"></polyline>
                </g>
            </g>
        </g>
    </g>
</svg>