<?xml version="1.0" encoding="UTF-8"?>
<svg width="50px" height="50px" viewBox="0 0 50 50" version="1.1" xmlns="http://www.w3.org/2000/svg" xmlns:xlink="http://www.w3.org/1999/xlink">
    <!-- Generator: Sketch 44.1 (41455) - http://www.bohemiancoding.com/sketch -->
    <title>Group 16</title>
    <desc>Created with Sketch.</desc>
    <defs></defs>
    <g id="Page-1" stroke="none" stroke-width="1" fill="none" fill-rule="evenodd">
        <g id="1366首页1-copy-2" transform="translate(-133.000000, -588.000000)">
            <g id="Group-16" transform="translate(133.000000, 588.000000)">
                <circle id="Oval-3-Copy-2" fill="#F9756A" cx="25" cy="25" r="25"></circle>
                <g id="Page-1" transform="translate(8.571429, 10.714286)" fill="#FFFFFF">
                    <path d="M10.4336466,28.5198709 L22.9563784,28.5198709 L22.9563784,0.00241478697 L10.4336466,0.00241478697 L10.4336466,28.5198709 Z M11.8259774,27.1281291 L21.5646366,27.1281291 L21.5646366,1.39180075 L11.8259774,1.39180075 L11.8259774,27.1281291 Z M24.3463534,0.695046366 L24.3463534,2.08855514 L31.9965163,2.08855514 L31.9965163,26.4313747 L24.3463534,26.4313747 L24.3463534,27.8254724 L33.3900251,27.8254724 L33.3900251,0.695046366 L24.3463534,0.695046366 Z M0,0.695046366 L0,27.8254724 L9.04426065,27.8254724 L9.04426065,26.4313747 L1.39174185,26.4313747 L1.39174185,2.08855514 L9.04426065,2.08855514 L9.04426065,0.695046366 L0,0.695046366 Z" id="Fill-1"></path>
                    <path d="M16.6941291,20.1731303 C15.9284649,20.1731303 15.3041541,20.7974411 15.3041541,21.5625163 C15.3041541,22.3305363 15.9284649,22.9548471 16.6941291,22.9548471 C17.4621491,22.9548471 18.0858709,22.3305363 18.0858709,21.5625163 C18.0858709,20.7974411 17.4621491,20.1725414 16.6941291,20.1725414 L16.6941291,20.1731303 Z M16.6941291,24.346589 C15.1610338,24.346589 13.9124123,23.0997343 13.9124123,21.5625163 C13.9124123,20.0294211 15.1610338,18.7813885 16.6941291,18.7813885 C18.2278133,18.7813885 19.4764348,20.0294211 19.4764348,21.5625163 C19.4764348,23.0997343 18.2278133,24.346589 16.6941291,24.346589 L16.6941291,24.346589 Z M25.0410464,15.9990827 L29.9118484,15.9990827 L29.9118484,14.6096967 L25.0410464,14.6096967 L25.0410464,15.9990827 Z M25.0410464,11.8256241 L29.9118484,11.8256241 L29.9118484,10.4338822 L25.0410464,10.4338822 L25.0410464,11.8256241 Z M25.0410464,7.65216541 L29.9118484,7.65216541 L29.9118484,6.26042356 L25.0410464,6.26042356 L25.0410464,7.65216541 Z M13.9130013,15.9990827 L19.4764348,15.9990827 L19.4764348,14.6096967 L13.9130013,14.6096967 L13.9130013,15.9990827 Z M13.9130013,11.8256241 L19.4764348,11.8256241 L19.4764348,10.4338822 L13.9130013,10.4338822 L13.9130013,11.8256241 Z M13.9130013,7.65216541 L19.4764348,7.65216541 L19.4764348,6.26042356 L13.9130013,6.26042356 L13.9130013,7.65216541 Z M3.47817669,15.9990827 L8.3489787,15.9990827 L8.3489787,14.6096967 L3.47817669,14.6096967 L3.47817669,15.9990827 Z M3.47817669,11.8256241 L8.3489787,11.8256241 L8.3489787,10.4338822 L3.47817669,10.4338822 L3.47817669,11.8256241 Z M3.47817669,7.65216541 L8.3489787,7.65216541 L8.3489787,6.26042356 L3.47817669,6.26042356 L3.47817669,7.65216541 Z" id="Fill-2"></path>
                </g>
            </g>
        </g>
    </g>
</svg>