<?xml version="1.0" encoding="UTF-8"?>
<svg width="46px" height="46px" viewBox="0 0 46 46" version="1.1" xmlns="http://www.w3.org/2000/svg" xmlns:xlink="http://www.w3.org/1999/xlink">
    <!-- Generator: Sketch 44.1 (41455) - http://www.bohemiancoding.com/sketch -->
    <title>Group 27</title>
    <desc>Created with Sketch.</desc>
    <defs></defs>
    <g id="Page-1" stroke="none" stroke-width="1" fill="none" fill-rule="evenodd">
        <g id="1366首页1-copy-2" transform="translate(-863.000000, -89.000000)">
            <g id="Group-17" transform="translate(133.000000, 74.000000)">
                <g id="Group-8" transform="translate(719.285714, 15.604551)"></g>
                <g id="Group-27" transform="translate(730.000000, 15.000000)" fill="#FFFFFF">
                    <path d="M21.2019649,12.232 L2.67003509,12.232 C6.25419549,5.46708772 13.1410125,0.725634085 21.2019649,0.192300752 L21.2019649,12.232 Z M24.2303358,30.4046316 L24.2303358,24.3470877 L45.3551479,24.3470877 C45.3888321,23.8450326 45.4321404,23.3445815 45.4321404,22.8329023 C45.4321404,22.3212231 45.3888321,21.8215739 45.3551479,21.3187168 L24.2303358,21.3187168 L24.2303358,15.2603709 L44.1120401,15.2603709 C41.1510376,6.90107268 33.4517895,0.804230576 24.2303358,0.193904762 C32.2920902,0.727238095 39.1765013,5.46869173 42.7606617,12.232 L24.2303358,12.232 L24.2303358,0.193904762 C23.7274787,0.160220551 23.2262256,0.116912281 22.7145464,0.116912281 C12.8290326,0.116912281 4.44166416,6.44392982 1.32026065,15.2603709 L21.2019649,15.2603709 L21.2019649,21.3187168 L0.0755488722,21.3187168 C0.0442706767,21.8215739 0.000160401003,22.3212231 0.000160401003,22.8329023 C0.000160401003,23.3445815 0.0442706767,23.8450326 0.0771528822,24.3470877 L21.2019649,24.3470877 L21.2019649,30.4046316 L1.32026065,30.4046316 C4.28126316,38.7647318 11.9805113,44.8631779 21.2003609,45.4718997 C13.1410125,44.9385664 6.25419549,40.1971128 2.6716391,33.4338045 L21.2019649,33.4338045 L21.2019649,45.4735038 C21.7048221,45.504782 22.2044712,45.5488922 22.7161504,45.5488922 C23.2278296,45.5488922 23.7274787,45.504782 24.2303358,45.4735038 L24.2303358,33.4338045 L42.7606617,33.4338045 C39.1781053,40.1971128 32.2920902,44.9385664 24.2319398,45.4718997 C33.4517895,44.8631779 41.1510376,38.7631278 44.1120401,30.4046316 L24.2303358,30.4046316 Z" id="Fill-1"></path>
                    <path d="M22.7163108,0.116511278 C15.073203,0.116511278 9.08623559,10.0950576 9.08623559,22.8333033 C9.08623559,35.5707469 15.073203,45.5484912 22.7163108,45.5484912 C30.3594185,45.5484912 36.346386,35.5707469 36.346386,22.8333033 C36.346386,10.0950576 30.3594185,0.116511278 22.7163108,0.116511278 M22.7163108,3.14488221 C28.5709474,3.14488221 33.317213,11.9597193 33.317213,22.8333033 C33.317213,33.7060852 28.5709474,42.5201203 22.7163108,42.5201203 C16.8616742,42.5201203 12.1154085,33.7060852 12.1154085,22.8333033 C12.1154085,11.9597193 16.8616742,3.14488221 22.7163108,3.14488221" id="Fill-4"></path>
                    <path d="M22.7147068,0.116511278 C10.1705464,0.116511278 0.000320802005,10.2875388 0.000320802005,22.8333033 C0.000320802005,35.3766617 10.1705464,45.5484912 22.7163108,45.5484912 C35.2620752,45.5484912 45.4323008,35.3766617 45.4323008,22.8333033 C45.4306967,10.2875388 35.2604712,0.116511278 22.7147068,0.116511278 M22.7147068,3.14488221 C33.5706466,3.14488221 42.4023258,11.9773634 42.4039298,22.8333033 C42.4039298,33.6884411 33.5714486,42.5201203 22.7163108,42.5201203 C11.8611729,42.5201203 3.02869173,33.6884411 3.02869173,22.8333033 C3.02869173,11.9773634 11.8595689,3.14488221 22.7147068,3.14488221" id="Fill-6"></path>
                </g>
            </g>
        </g>
    </g>
</svg>